<?xml version="1.0" encoding="UTF-8"?>
<svg width="256px" height="256px" viewBox="0 0 256 256" version="1.1" xmlns="http://www.w3.org/2000/svg" xmlns:xlink="http://www.w3.org/1999/xlink">
    <title>metrifi-favicon</title>
    <g id="MetriFi-brand" stroke="none" stroke-width="1" fill="none" fill-rule="evenodd">
        <g id="metrifi-favicon" transform="translate(-40, -33)">
            <g transform="translate(40, 33)">
                <rect id="Rectangle" fill="#884DFF" x="0" y="0" width="256" height="256" rx="32"></rect>
                <g id="mark" transform="translate(27, 67)" fill="#FFFFFF" fill-rule="nonzero">
                    <path d="M120.101822,3.63231327 C124.408496,-0.299832186 129.938838,-0.0369059753 133.822107,4.17643144 C134.960652,5.40748585 135.826106,6.75339408 136.668289,8.05324483 C144.107704,19.535459 151.541777,31.02285 158.975226,42.5089469 L199.289989,104.765989 C199.479035,105.057768 199.668979,105.340461 199.865601,105.625608 C200.451052,106.487324 201.057841,107.379354 201.543685,108.419814 C202.309865,110.068357 202.762319,111.52328 202.928382,112.873896 C203.300904,115.894214 202.203419,118.786344 200.0268,120.680459 L198.035067,121.976899 L197.737658,122.109529 C194.18746,123.596359 190.808176,123.165154 188.164836,120.905677 L187.884463,120.656599 C186.631028,119.496928 185.425613,118.018677 184.195917,116.131201 C175.498668,102.739022 166.827961,89.338068 158.157316,75.9319736 L146.916253,58.5664742 C140.467004,48.6125111 134.026045,38.6582529 127.566772,28.7176158 C127.217286,28.1834439 126.81329,27.6541508 126.405172,27.1394409 C126.156866,27.3792723 125.971824,27.6408283 125.796807,27.8890588 L120.344405,35.8176121 C115.012187,43.5625284 109.678777,51.3082213 104.337913,59.0502645 C91.4100013,77.7747495 78.4833444,96.4933171 65.5391007,115.19783 C64.5341016,116.644254 63.6285479,117.728426 62.6804376,118.610781 C62.289307,118.980981 61.857099,119.321814 61.3977734,119.620794 C58.1872682,121.710547 53.8604446,121.606108 50.8712615,119.364389 C47.4327991,116.782665 46.2278202,112.247304 47.9461386,108.344025 C48.7579661,106.4895 49.8507321,104.798933 50.8149824,103.394335 C61.4486929,87.9330018 72.0976664,72.4821361 82.760291,57.0444859 C90.7105722,45.5178889 98.6727225,33.988667 106.637553,22.4662006 L116.233715,8.5659854 C116.835754,7.68617581 117.444176,6.80051099 118.090576,5.93942932" id="arch"></path>
                    <path d="M73.3320485,2.81628817 C75.7072956,0.539407313 78.9454603,-0.446663724 81.8748678,0.189854954 C84.2928579,0.724790936 86.4122961,2.27106274 87.8425301,4.54464494 C89.6489642,7.41051831 89.7628405,10.5025467 88.1696186,13.4838286 C87.5935223,14.5690594 86.9325773,15.5891832 86.2606923,16.573593 L72.2407622,36.7077483 L72.2407622,36.7077483 L50.4676023,67.936214 C40.1240643,82.7545229 29.7820834,97.5752075 19.4274598,112.392205 C18.4571116,113.775078 17.336036,115.195837 15.9955275,116.7291 C15.4732706,117.323633 14.8842324,117.834464 14.2488551,118.24337 C12.8054696,119.172281 11.0696067,119.634061 9.07878802,119.609959 C6.43981759,119.58994 3.92915827,118.426392 2.21276603,116.458742 L0.845126839,114.371712 C-0.129309297,112.319132 -0.272099556,109.996073 0.47402536,107.790473 C1.12934719,105.838435 2.25493984,104.078645 3.26828793,102.615738 L16.1087639,84.1528392 L16.1087639,84.1528392 L52.8510283,31.447047 L52.8510283,31.447047 L69.5554523,7.52194512 C70.6167674,5.99438642 71.8165348,4.26455746 73.3320485,2.81628817 Z" id="left"></path>
                    <path d="M132.139407,71.1561711 C130.42589,69.3660138 128.149051,68.3550517 125.506533,68.2282158 C123.734833,68.2409437 122.002504,68.7677016 120.492945,69.7473447 C117.870385,71.4492796 116.280472,74.2632171 116.242207,77.2736153 C116.207161,79.4580856 116.769271,81.4422618 117.90574,83.1779586 C118.564794,84.1868709 119.218512,85.2111617 119.880727,86.2537685 C120.419,87.0925491 120.949727,87.9328233 121.492015,88.7672968 L125.979932,95.6864208 C130.283876,102.319825 134.587819,108.95323 138.933929,115.572887 C140.436259,117.855845 141.735913,119.465216 143.14606,120.783304 C145.95288,123.419715 150.645966,123.737534 154.192232,121.436151 L154.213797,121.422156 C157.839659,118.96018 159.311435,114.376079 157.719512,110.518905 C156.980418,108.721074 155.981765,107.089985 155.192125,105.869644 C148.439374,95.4313125 141.657388,85.0187627 134.855936,74.6103343 C134.019787,73.3367705 133.105438,72.1735299 132.139407,71.1561711" id="center"></path>
                </g>
            </g>
        </g>
    </g>
</svg>